<?xml version="1.0" standalone="no"?><!DOCTYPE svg PUBLIC "-//W3C//DTD SVG 1.1//EN" "http://www.w3.org/Graphics/SVG/1.1/DTD/svg11.dtd"><svg t="1778051706133" class="icon" viewBox="0 0 1024 1024" version="1.1" xmlns="http://www.w3.org/2000/svg" p-id="1204" width="128" height="128" xmlns:xlink="http://www.w3.org/1999/xlink"><path d="M266.13551 363.833469c-12.622367-0.626939-23.614694 5.391673-35.610122 7.941225-9.404082 1.880816-15.861551-0.334367-19.435102-9.216-13.583673-32.057469-27.501714-64.094041-40.437551-96.46498-4.869224-12.685061-3.552653-26.017959 0-39.037387 21.671184-74.877388 75.086367-120.894694 143.067428-154.519511 17.136327-8.254694 34.293551-6.687347 51.785143-6.979918C404.020245 64.574694 442.200816 62.693878 480.402286 62.693878c39.162776 0 78.012082 0.961306 117.174857 2.215183 14.565878 0.626939 29.131755-7.293388 43.697633 3.824327 20.396408 16.17502 35.275755 35.526531 41.440653 60.604081 10.03102 41.252571 16.509388 82.818612 20.37551 125.011592 2.277878 26.017959 5.182694 28.56751 31.409632 28.56751 27.501714 0 55.024327-3.17649 82.212572 2.215184 29.466122 5.705143 37.532735 18.724571 27.167347 46.644245-13.583673 36.801306-34.627918 70.44702-50.468572 106.307918-4.534857 9.822041-11.013224 10.783347-17.491591 0.940409-3.552653-5.391673-8.08751-9.822041-11.326694-15.234613-27.836082-47.271184-71.847184-57.114122-122.357551-50.447673a145.784163 145.784163 0 0 1-35.275755 0c-31.388735-3.803429-62.484898 2.549551-92.891429 9.529469-33.980082 7.941224-68.294531 15.861551-100.978939 27.919674-46.602449 17.449796-93.873633 34.899592-132.388571 67.918367-21.044245 18.076735-35.610122 39.329959-37.553633 67.563102-0.626939 8.254694-2.591347 16.195918 11.326694 13.980735a11.243102 11.243102 0 0 1 12.956735 9.508571c1.609143 8.568163-6.164898 8.254694-11.661062 9.822041-5.830531 1.609143-11.013224 3.824327-14.565877 11.117714 8.08751 1.588245 15.213714-3.155592 22.005551 0.334368 5.517061 2.842122 11.013224 5.391673 10.03102 12.685061-0.961306 6.018612-6.478367 6.35298-11.326694 6.666449-8.08751 0.313469-16.17502 1.253878-22.005551 7.941224-1.295673 1.253878-4.20049 3.155592-5.496163 2.507755-12.956735-5.684245-31.723102-8.233796-37.553632-18.076734-12.622367-21.880163-31.723102-38.70302-42.715429-61.231021-9.404082-19.038041-20.730776-37.135673-26.226939-57.761959-6.478367-23.802776-0.626939-43.154286 18.787265-59.642775C170.945306 403.163429 200.411429 393.027918 229.877551 382.850612c12.956735-4.451265 25.579102-9.529469 38.514939-14.294204a59.203918 59.203918 0 0 1-2.25698-4.743837z m335.97649-165.971591c3.552653 7.627755 8.421878 14.921143 10.678857 22.862367 3.552653 11.744653 6.144 24.116245 8.421878 36.487837 2.25698 12.998531 1.609143 25.39102-15.882449 30.448326 22.360816-1.567347 42.422857-4.743837 62.484898-6.979918 15.861551-1.567347 22.987755-10.13551 15.213714-24.743184-5.182694-9.195102 4.20049-25.077551-13.270204-28.233143 3.239184-15.548082-10.678857-16.509388-19.435102-20.312816-14.879347-6.35298-31.388735-10.469878-48.211592-9.529469-14.565878-8.233796-30.093061 5.726041-45.97551-2.528654-8.40098-4.451265-21.023347-0.313469-32.036572-0.626938-12.956735-0.334367-17.470694 5.391673-14.565877 17.763265 5.496163 22.528 12.622367 44.721633 15.548081 67.918367 0.961306 6.95902 6.478367 9.195102 12.956735 9.195102 5.161796-0.334367 11.953633 2.528653 12.60147-7.314285 0.647837-7.941224 10.365388-6.979918 11.97453-4.116898 6.478367 11.744653 11.326694 5.391673 16.843755 0 3.552653-3.489959 8.08751-4.764735 12.956735-6.03951 15.527184-4.116898 19.727673-10.783347 13.583673-25.056654-5.517061-12.685061-8.421878-25.70449-10.678857-39.350857-0.982204-7.941224 2.25698-8.254694 6.791837-9.82204zM426.673633 105.534694c-14.879347 8.568163-31.075265 6.666449-46.602449 8.254694-2.277878 0.313469-4.221388 3.489959-6.812735 4.116898-13.249306 3.489959-5.496163-20.626286-20.68898-15.548082-0.668735 0.313469-2.298776-3.489959-0.668734-5.391673 0.982204-0.961306 3.239184-0.626939 4.534857-1.588245 3.88702-2.549551 0.961306-5.705143 0.647837-8.568164-0.626939-4.116898-3.552653-4.451265-7.105307-3.803428-8.108408 0.940408-19.121633 1.588245-15.234612 12.371592 2.277878 6.018612-1.295673 23.154939 16.195919 16.509387 3.552653-1.274776 8.40098 1.253878 6.144 3.48996-9.717551 7.941224-0.961306 14.273306-0.626939 21.253224 0.626939 22.841469 8.714449 43.154286 16.17502 64.094041 3.866122 10.783347 9.048816 13.959837 20.37551 9.529469 26.226939-10.804245 53.728653-19.038041 82.212572-22.528 11.013224-1.274776 14.900245-7.000816 12.308898-17.470694a1192.688327 1192.688327 0 0 1-12.308898-59.015836c-1.94351-9.508571-7.753143-11.410286-16.509388-10.783347-14.879347 1.588245-22.987755 12.371592-31.388735 22.528-7.774041 9.508571-15.213714 10.469878-28.483918 0.961306 15.213714 2.215184 17.805061-12.705959 27.836082-18.411102z m57.929143 93.622857c-33.980082 5.057306-64.073143 14.900245-93.852735 25.70449-8.08751 2.842122-5.830531 8.860735-3.887021 14.565877 6.144 15.882449 12.622367 31.430531 18.766368 46.978613 10.365388 25.70449 10.365388 25.70449 37.553632 24.429714 3.88702-0.313469 7.439673 1.901714 10.678858 1.901714 10.03102-0.626939 22.005551 0 29.779591-5.078204 5.830531-3.803429 9.069714-4.451265 14.900245-2.528653 14.23151 4.743837 19.079837 0.940408 16.175021-13.646367-5.496163-26.331429-11.326694-52.662857-17.470694-78.701715-1.630041-7.941224-5.517061-14.273306-12.643265-13.646367z m-83.487347 109.46351c-0.334367-0.961306-0.334367-2.236082-0.647837-3.17649-8.108408-19.038041-16.195918-38.076082-24.617796-56.800653-2.904816-6.666449-9.048816-6.35298-13.583674-3.176489-26.540408 16.17502-56.32 27.606204-76.69551 51.722449-7.147102 8.254694-14.586776 19.35151-8.777143 31.723102 5.851429 13.019429 17.491592 16.195918 32.705307 9.842938 11.326694-4.764735 22.339918-10.783347 35.275755-4.116898 3.239184 1.588245 6.812735 0.940408 7.77404-3.176489 1.630041-8.568163 9.404082-7.627755 15.213715-9.195102a405.211429 405.211429 0 0 1 26.540408-6.687347c3.552653-0.940408 7.460571-1.880816 6.812735-6.959021z m-142.733062-107.269224c-0.982204 2.86302-3.907918 2.86302-6.478367 2.86302-10.365388-0.313469-19.769469 0.626939-22.987755 12.685061-3.239184 12.07902 6.791837 14.607673 13.918041 19.999347 3.88702 2.86302 6.144 7.606857 11.640163 2.528653 3.88702-3.803429 8.421878-6.979918 5.182694-13.312-2.591347-5.391673-5.182694-13.959837 2.925714-13.959836 22.005551 0.626939 16.509388-21.901061 28.463021-29.507919 2.591347-1.922612-0.313469-6.03951-3.866123-6.687347a174.497959 174.497959 0 0 0-16.843755-1.253877c10.365388-6.666449 20.062041-4.116898 28.818286-7.314286-0.982204 11.431184 11.326694 21.901061-1.630041 36.195265 15.548082-5.391673 16.843755-14.294204 15.548082-23.823673 5.809633-2.507755 7.753143 7.314286 13.583673 2.236082 0.982204-5.705143-3.239184-10.783347 0-16.822858 6.791837-13.312 6.478367-13.625469-4.848327-26.331428-8.08751 19.35151-8.735347 19.35151-30.093061 12.058122-3.573551-1.253878-5.182694 0.961306-6.812734 2.863021-8.08751 8.881633-19.100735 15.861551-19.435102 29.821387 0 2.86302-1.609143 8.881633-4.179592 6.35298-5.851429-5.391673-9.717551-4.451265-11.995429 1.588245-3.552653 8.254694 9.717551 2.842122 9.069714 9.822041z m9.362286 94.563265c-20.062041 13.646367-32.036571 32.684408-41.106286 53.958531-1.295673 3.489959-0.961306 6.018612 2.925715 7.606857 11.640163 4.116898 31.388735-9.529469 28.797387-20.939755-3.88702-15.234612-2.925714-28.88098 9.404082-40.625633zM787.894857 721.439347c-26.540408 13.019429-54.042122 11.744653-79.286857 20.312816-5.182694 1.588245-7.774041 5.391673-9.717551 9.822041-6.791837 13.667265-16.843755 24.764082-26.540408 35.881796-20.396408 23.468408-48.880327 26.958367-80.603429 9.508571-11.326694-6.35298-21.357714-7.606857-33.332245-2.549551-12.956735 5.078204-26.540408 8.254694-40.792816 9.842939-2.591347-6.666449 5.830531-5.705143 5.182694-11.410286-9.717551-2.236082-19.435102 2.842122-29.466123 2.215184-11.305796-0.313469-22.653388 0.313469-33.980081-1.253877-2.25698-0.334367-17.470694-8.902531-7.105306 6.645551 1.94351 2.86302-4.534857 3.803429-7.126204 2.86302-14.565878-5.078204-29.779592-8.568163-43.697633-17.136327 7.439673-4.451265 13.583673 4.116898 23.949061-1.274775-43.049796-7.314286-64.094041-33.645714-76.69551-68.858776-5.851429-16.509388-7.774041-33.018776-8.421878-49.820734l4.848327-0.940408c1.94351 7.941224 4.20049 15.861551 6.144 23.781877 10.03102 46.665143 40.458449 73.62351 85.786122 87.583347 66.66449 20.626286 122.67102-1.588245 174.456164-40.939102 4.20049-3.155592 9.069714-6.979918 11.013224-11.410286 8.08751-18.724571 20.37551-17.136327 36.237061-10.156408 48.23249 21.253224 94.521469 16.17502 138.55347-11.744653 3.552653-2.215184 9.048816-3.17649 8.714449-8.254694-0.313469-5.078204-5.809633-3.489959-9.048817-4.430367-4.221388-0.961306-7.105306-2.549551-6.791836-7.314286 0.313469-5.057306 2.25698-10.783347 7.105306-11.723755 25.913469-5.391673 34.314449-27.940571 48.23249-45.056 5.830531-7.314286 10.678857-14.294204 10.365387-24.116245 6.791837 26.644898-3.239184 48.859429-18.787265 68.837878-9.696653 12.705959-18.766367 25.39102-25.892571 39.998694-14.879347 29.194449-35.275755 54.564571-59.559184 76.48653-10.657959 9.508571-11.974531 17.115429 0.647837 26.644898 22.360816 16.509388 43.697633 34.272653 65.410612 51.722449 21.671184 17.763265 39.141878 39.329959 55.985633 61.231021 7.753143 10.156408 3.866122 14.273306-7.774041 13.959836-46.936816-0.313469-93.873633-2.86302-140.476082-0.940408-29.131755 1.253878-57.950041-2.86302-86.747428 0-9.069714 0.940408-18.118531-0.334367-27.522613-0.626939-3.88702 0-8.40098 0.292571-9.383183-4.137796-0.961306-5.391673 3.88702-9.195102 7.460571-8.568163 15.840653 2.86302 30.406531 3.17649 44.011102-7.606857 3.239184-2.549551 8.735347 2.215184 12.622367 5.057306 7.439673 5.726041 15.527184 4.764735 22.987756 0.626939 8.08751-4.430367 1.94351-11.410286 0.961306-17.136327-0.626939-3.469061-1.295673-7.606857-3.552653-10.448979-9.069714-12.058122-9.717551-24.764082-5.517062-38.723919 1.295673-4.116898 3.552653-10.156408-1.609142-12.99853-5.496163-2.549551-10.03102 2.215184-14.879347 4.430367-5.851429 3.17649-3.552653 7.627755-1.943511 12.39249 1.922612 5.391673 10.03102 12.037224 2.25698 16.801959-9.404082 6.03951-21.357714 7.627755-32.370939 7.627755-4.848327 0-3.239184-5.391673-2.591347-9.195102 0.982204-4.451265 5.830531-7.627755 4.534857-13.332898-7.439673-1.922612-13.270204 2.842122-20.06204 4.116898-6.812735 1.253878-9.717551 4.116898-3.887021 10.469878 9.404082 10.156408 4.20049 14.607673-7.105306 16.17502-4.221388 0.626939-8.756245 0.626939-12.643265 2.236082-10.03102 4.116898-13.270204 2.215184-15.527184-9.195102-3.552653-19.999347-18.139429-2.236082-26.874775-6.687347 2.591347 10.156408 9.069714 16.195918 15.213714 22.548898 3.239184 3.489959 7.105306 6.332082 8.735347 11.096816 6.164898 20.312816 2.277878 25.70449-19.414204 25.70449-55.024327 0-109.714286 0-164.75951-0.313469-5.161796 0-11.974531 1.880816-15.213715-3.17649-3.866122-6.35298 3.239184-10.469878 6.164898-14.921143 10.657959-16.509388 23.614694-31.409633 32.684408-48.859429 4.534857-8.881633 3.239184-13.646367-5.496163-17.449796-34.314449-14.921143-63.780571-37.449143-92.891428-59.977142a26.561306 26.561306 0 0 0-24.283429-5.391674c-23.949061 5.391673-44.032-1.901714-59.559184-19.66498-29.779592-33.959184-53.728653-70.133551-51.785143-117.739102 0.313469-9.822041 2.25698-18.390204 12.288-29.194449-3.88702 18.411102-10.03102 32.391837-3.552653 50.155102 0.961306-16.822857 0-32.391837 17.470694-36.195265 17.157224-3.803429 26.226939 9.529469 35.296653 20.626286 5.809633 6.979918 11.326694 13.959837 13.918041 22.862367 2.904816 9.822041 11.326694 20.939755-9.404082 21.253225-5.809633 0-6.791837 6.979918-6.144 12.685061 1.295673 9.195102 6.478367 16.822857 11.013225 24.450612 11.640163 19.644082 11.640163 19.644082-11.013225 27.271837 15.882449 8.254694 30.093061 13.646367 45.975511 14.921143 1.922612 0 5.161796-0.626939 5.809632-1.901714 9.717551-18.390204 16.843755-6.03951 23.949062 1.901714 4.221388 4.764735 9.404082 6.979918 14.900244 9.508571 5.182694 2.236082 11.640163 2.549551 11.640164 10.490776 0 1.253878 2.277878 3.489959 2.925714 3.155592 19.100735-4.743837 18.452898 16.509388 30.427429 21.901061 13.583673 6.03951 27.167347 13.019429 40.458449 19.999347 7.105306 3.803429 16.822857 5.078204 18.11853 15.861551 0.334367 1.588245 5.182694 3.17649 8.421878 3.803428 34.314449 6.979918 68.294531 8.568163 103.904653 3.17649 31.075265-4.764735 61.502694-9.195102 90.300081-21.253224 22.005551-9.195102 44.032-18.724571 67.333225-25.077551 10.992327-3.17649 14.879347-13.332898 20.709877-21.253225 14.565878-20.626286 35.94449-34.899592 51.471674-54.585469 6.144-6.35298 12.956735-12.685061 14.23151-25.70449z m-556.094694 15.882449c-1.922612-13.332898-4.848327-26.331429 0-39.037388 2.925714-7.314286 11.995429-12.705959 4.869225-22.21453-5.182694-6.666449-7.774041-15.234612-14.565878-20.626286-4.534857-3.489959-9.696653-7.606857-15.861551-4.451265a14.398694 14.398694 0 0 0-7.753143 16.195918c5.161796 25.70449 16.509388 49.172898 33.332245 70.112653z m407.510204 51.40898c11.995429 3.469061 16.195918-9.216 24.304327-15.255511 4.179592-3.489959 10.03102-6.332082 1.94351-11.744653-6.164898-4.116898-12.329796-16.48849-19.100735-8.233796-6.812735 7.941224-14.900245 8.881633-22.360816 13.332898-4.179592 2.528653-8.40098 5.705143-7.732245 11.075919 0.626939 6.060408 5.475265 8.902531 10.992327 9.863836 3.552653 0.313469 6.791837 0.313469 11.97453 0.940409z" p-id="1205" fill="#d81e06"></path><path d="M438.982531 458.396735c-36.257959-4.137796-60.541388 16.801959-82.23347 42.506449-3.239184 3.803429-5.161796 9.822041-11.97453 9.195102-3.239184-0.313469-4.848327-3.803429-3.887021-6.018613 2.591347-5.705143-6.144-13.646367 5.851429-18.076734 9.362286-3.510857 12.601469-15.25551 19.414204-22.548898 18.118531-19.35151 39.162776-32.997878 67.646694-31.096163 4.848327 0.334367 9.696653 1.274776 14.23151 2.549551 9.717551 3.17649 20.396408 8.568163 18.766367 18.724571-1.609143 11.744653-13.249306 2.528653-20.37551 4.430367-1.94351 0.626939-4.221388 0.334367-7.439673 0.334368zM460.340245 580.231837c0 15.882449-6.791837 24.764082-18.787265 24.116245-14.879347-0.626939-29.779592-18.076735-29.131756-36.15347 0.334367-11.431184 2.277878-24.450612 17.491592-26.352326 15.527184-1.588245 30.740898 18.097633 30.427429 38.389551zM657.784163 391.418776c26.853878 1.609143 46.28898 18.411102 66.351021 33.018775 2.591347 1.901714 4.20049 5.391673 1.94351 8.568163-2.591347 3.803429-6.478367 2.86302-10.031021 0.940408-12.308898-6.018612-25.579102-10.44898-38.201469-15.234612-12.622367-4.430367-19.748571-0.626939-29.131755 4.137796-6.478367 3.489959-13.918041 12.685061-21.044245 5.078204-7.439673-8.254694-1.609143-18.097633 4.869225-25.70449 6.144-7.941224 14.879347-11.744653 25.244734-10.783347zM711.512816 533.901061c0 6.687347-1.630041 12.705959-7.77404 16.195919-6.478367 3.489959-12.622367 0.626939-17.805062-3.48996-10.34449-8.254694-16.17502-19.685878-17.805061-32.684408-0.961306-8.254694 1.630041-16.195918 10.03102-19.999347 8.108408-3.489959 14.900245 1.253878 20.062041 6.666449 8.442776 9.195102 11.995429 20.939755 13.291102 33.311347zM647.753143 580.231837c-3.552653 13.332898-7.774041 25.39102-21.378612 30.155755-14.23151 5.078204-27.501714 0.313469-39.162776-7.627755-6.791837-4.430367-2.925714-8.881633 2.277878-12.058123 14.879347-8.881633 33.332245-9.195102 47.898122-20.939755 6.144-5.391673 9.069714 4.764735 10.365388 10.469878z" p-id="1206" fill="#d81e06"></path></svg>